<mxfile host="app.diagrams.net" modified="2023-05-02T11:34:10.674Z" agent="Mozilla/5.0 (Windows NT 10.0; Win64; x64) AppleWebKit/537.36 (KHTML, like Gecko) Chrome/112.0.0.0 Safari/537.36" version="21.2.3" etag="uHB_YWK9wW3ylRRITpaL" type="device">
  <diagram id="sZ_RF0B-qtOyqRWJKmrX" name="第 1 页">
    <mxGraphModel dx="1434" dy="750" grid="1" gridSize="10" guides="1" tooltips="1" connect="1" arrows="1" fold="1" page="1" pageScale="1" pageWidth="827" pageHeight="1169" background="#ffffff" math="0" shadow="0">
      <root>
        <mxCell id="0" />
        <mxCell id="1" parent="0" />
        <mxCell id="cZ2S4tiX9ya77SvHFUL8-15" style="edgeStyle=orthogonalEdgeStyle;rounded=0;sketch=1;hachureGap=4;jiggle=2;curveFitting=1;orthogonalLoop=1;jettySize=auto;html=1;exitX=1;exitY=0.5;exitDx=0;exitDy=0;fontFamily=Architects Daughter;fontSource=https%3A%2F%2Ffonts.googleapis.com%2Fcss%3Ffamily%3DArchitects%2BDaughter;fontSize=16;" edge="1" parent="1" source="3" target="cZ2S4tiX9ya77SvHFUL8-7">
          <mxGeometry relative="1" as="geometry" />
        </mxCell>
        <mxCell id="3" value="CLI" style="rounded=1;whiteSpace=wrap;html=1;sketch=1;hachureGap=4;jiggle=2;curveFitting=1;fontFamily=Architects Daughter;fontSource=https%3A%2F%2Ffonts.googleapis.com%2Fcss%3Ffamily%3DArchitects%2BDaughter;fontSize=20;fillColor=#dae8fc;strokeColor=#6c8ebf;" parent="1" vertex="1">
          <mxGeometry x="190" y="290" width="120" height="60" as="geometry" />
        </mxCell>
        <mxCell id="cZ2S4tiX9ya77SvHFUL8-3" value="Actor" style="shape=umlActor;verticalLabelPosition=bottom;verticalAlign=top;html=1;outlineConnect=0;sketch=1;hachureGap=4;jiggle=2;curveFitting=1;fontFamily=Architects Daughter;fontSource=https%3A%2F%2Ffonts.googleapis.com%2Fcss%3Ffamily%3DArchitects%2BDaughter;fontSize=20;" vertex="1" parent="1">
          <mxGeometry x="70" y="290" width="30" height="60" as="geometry" />
        </mxCell>
        <mxCell id="cZ2S4tiX9ya77SvHFUL8-5" value="" style="shape=flexArrow;endArrow=classic;html=1;rounded=0;sketch=1;hachureGap=4;jiggle=2;curveFitting=1;fontFamily=Architects Daughter;fontSource=https%3A%2F%2Ffonts.googleapis.com%2Fcss%3Ffamily%3DArchitects%2BDaughter;fontSize=16;entryX=0;entryY=0.5;entryDx=0;entryDy=0;" edge="1" parent="1" source="cZ2S4tiX9ya77SvHFUL8-3" target="3">
          <mxGeometry width="50" height="50" relative="1" as="geometry">
            <mxPoint x="120" y="350" as="sourcePoint" />
            <mxPoint x="170" y="310" as="targetPoint" />
          </mxGeometry>
        </mxCell>
        <mxCell id="cZ2S4tiX9ya77SvHFUL8-10" value="" style="edgeStyle=orthogonalEdgeStyle;rounded=0;sketch=1;hachureGap=4;jiggle=2;curveFitting=1;orthogonalLoop=1;jettySize=auto;html=1;fontFamily=Architects Daughter;fontSource=https%3A%2F%2Ffonts.googleapis.com%2Fcss%3Ffamily%3DArchitects%2BDaughter;fontSize=16;" edge="1" parent="1" source="cZ2S4tiX9ya77SvHFUL8-7" target="cZ2S4tiX9ya77SvHFUL8-9">
          <mxGeometry relative="1" as="geometry" />
        </mxCell>
        <mxCell id="cZ2S4tiX9ya77SvHFUL8-12" value="" style="edgeStyle=orthogonalEdgeStyle;rounded=0;sketch=1;hachureGap=4;jiggle=2;curveFitting=1;orthogonalLoop=1;jettySize=auto;html=1;fontFamily=Architects Daughter;fontSource=https%3A%2F%2Ffonts.googleapis.com%2Fcss%3Ffamily%3DArchitects%2BDaughter;fontSize=16;" edge="1" parent="1" source="cZ2S4tiX9ya77SvHFUL8-7" target="cZ2S4tiX9ya77SvHFUL8-11">
          <mxGeometry relative="1" as="geometry" />
        </mxCell>
        <mxCell id="cZ2S4tiX9ya77SvHFUL8-14" value="" style="edgeStyle=orthogonalEdgeStyle;rounded=0;sketch=1;hachureGap=4;jiggle=2;curveFitting=1;orthogonalLoop=1;jettySize=auto;html=1;fontFamily=Architects Daughter;fontSource=https%3A%2F%2Ffonts.googleapis.com%2Fcss%3Ffamily%3DArchitects%2BDaughter;fontSize=16;" edge="1" parent="1" source="cZ2S4tiX9ya77SvHFUL8-7" target="cZ2S4tiX9ya77SvHFUL8-13">
          <mxGeometry relative="1" as="geometry" />
        </mxCell>
        <mxCell id="cZ2S4tiX9ya77SvHFUL8-7" value="preset" style="rhombus;whiteSpace=wrap;html=1;sketch=1;hachureGap=4;jiggle=2;curveFitting=1;fontFamily=Architects Daughter;fontSource=https%3A%2F%2Ffonts.googleapis.com%2Fcss%3Ffamily%3DArchitects%2BDaughter;fontSize=20;fillColor=#d5e8d4;strokeColor=#82b366;" vertex="1" parent="1">
          <mxGeometry x="350" y="280" width="80" height="80" as="geometry" />
        </mxCell>
        <mxCell id="cZ2S4tiX9ya77SvHFUL8-9" value="Vue" style="ellipse;whiteSpace=wrap;html=1;fontSize=20;fontFamily=Architects Daughter;sketch=1;hachureGap=4;jiggle=2;curveFitting=1;fontSource=https%3A%2F%2Ffonts.googleapis.com%2Fcss%3Ffamily%3DArchitects%2BDaughter;fillColor=#f8cecc;strokeColor=#b85450;" vertex="1" parent="1">
          <mxGeometry x="350" y="140" width="80" height="80" as="geometry" />
        </mxCell>
        <mxCell id="cZ2S4tiX9ya77SvHFUL8-22" style="edgeStyle=orthogonalEdgeStyle;rounded=0;sketch=1;hachureGap=4;jiggle=2;curveFitting=1;orthogonalLoop=1;jettySize=auto;html=1;exitX=1;exitY=0.5;exitDx=0;exitDy=0;fontFamily=Architects Daughter;fontSource=https%3A%2F%2Ffonts.googleapis.com%2Fcss%3Ffamily%3DArchitects%2BDaughter;fontSize=16;" edge="1" parent="1" source="cZ2S4tiX9ya77SvHFUL8-11" target="cZ2S4tiX9ya77SvHFUL8-20">
          <mxGeometry relative="1" as="geometry">
            <Array as="points">
              <mxPoint x="630" y="320" />
              <mxPoint x="630" y="320" />
            </Array>
          </mxGeometry>
        </mxCell>
        <mxCell id="cZ2S4tiX9ya77SvHFUL8-11" value="Node" style="ellipse;whiteSpace=wrap;html=1;fontSize=20;fontFamily=Architects Daughter;sketch=1;hachureGap=4;jiggle=2;curveFitting=1;fontSource=https%3A%2F%2Ffonts.googleapis.com%2Fcss%3Ffamily%3DArchitects%2BDaughter;fillColor=#f8cecc;strokeColor=#b85450;" vertex="1" parent="1">
          <mxGeometry x="510" y="280" width="80" height="80" as="geometry" />
        </mxCell>
        <mxCell id="cZ2S4tiX9ya77SvHFUL8-19" style="edgeStyle=orthogonalEdgeStyle;rounded=0;sketch=1;hachureGap=4;jiggle=2;curveFitting=1;orthogonalLoop=1;jettySize=auto;html=1;exitX=0.5;exitY=1;exitDx=0;exitDy=0;entryX=0.463;entryY=-0.033;entryDx=0;entryDy=0;entryPerimeter=0;fontFamily=Architects Daughter;fontSource=https%3A%2F%2Ffonts.googleapis.com%2Fcss%3Ffamily%3DArchitects%2BDaughter;fontSize=16;" edge="1" parent="1" source="cZ2S4tiX9ya77SvHFUL8-13" target="cZ2S4tiX9ya77SvHFUL8-16">
          <mxGeometry relative="1" as="geometry" />
        </mxCell>
        <mxCell id="cZ2S4tiX9ya77SvHFUL8-13" value="diy" style="ellipse;whiteSpace=wrap;html=1;fontSize=20;fontFamily=Architects Daughter;sketch=1;hachureGap=4;jiggle=2;curveFitting=1;fontSource=https%3A%2F%2Ffonts.googleapis.com%2Fcss%3Ffamily%3DArchitects%2BDaughter;" vertex="1" parent="1">
          <mxGeometry x="350" y="420" width="80" height="80" as="geometry" />
        </mxCell>
        <mxCell id="cZ2S4tiX9ya77SvHFUL8-21" style="edgeStyle=orthogonalEdgeStyle;rounded=0;sketch=1;hachureGap=4;jiggle=2;curveFitting=1;orthogonalLoop=1;jettySize=auto;html=1;exitX=1;exitY=0.5;exitDx=0;exitDy=0;entryX=-0.025;entryY=0.8;entryDx=0;entryDy=0;entryPerimeter=0;fontFamily=Architects Daughter;fontSource=https%3A%2F%2Ffonts.googleapis.com%2Fcss%3Ffamily%3DArchitects%2BDaughter;fontSize=16;" edge="1" parent="1" source="cZ2S4tiX9ya77SvHFUL8-16" target="cZ2S4tiX9ya77SvHFUL8-20">
          <mxGeometry relative="1" as="geometry" />
        </mxCell>
        <mxCell id="cZ2S4tiX9ya77SvHFUL8-32" style="edgeStyle=orthogonalEdgeStyle;rounded=0;sketch=1;hachureGap=4;jiggle=2;curveFitting=1;orthogonalLoop=1;jettySize=auto;html=1;entryX=0.975;entryY=0.613;entryDx=0;entryDy=0;entryPerimeter=0;fontFamily=Architects Daughter;fontSource=https%3A%2F%2Ffonts.googleapis.com%2Fcss%3Ffamily%3DArchitects%2BDaughter;fontSize=16;" edge="1" parent="1" source="cZ2S4tiX9ya77SvHFUL8-16" target="cZ2S4tiX9ya77SvHFUL8-30">
          <mxGeometry relative="1" as="geometry" />
        </mxCell>
        <mxCell id="cZ2S4tiX9ya77SvHFUL8-16" value="配置列表多选" style="rounded=1;whiteSpace=wrap;html=1;sketch=1;hachureGap=4;jiggle=2;curveFitting=1;fontFamily=Architects Daughter;fontSource=https%3A%2F%2Ffonts.googleapis.com%2Fcss%3Ffamily%3DArchitects%2BDaughter;fontSize=20;glass=0;" vertex="1" parent="1">
          <mxGeometry x="240" y="540" width="320" height="60" as="geometry" />
        </mxCell>
        <mxCell id="cZ2S4tiX9ya77SvHFUL8-20" value="生成配置和插件列表" style="rounded=1;whiteSpace=wrap;html=1;sketch=1;hachureGap=4;jiggle=2;curveFitting=1;fontFamily=Architects Daughter;fontSource=https%3A%2F%2Ffonts.googleapis.com%2Fcss%3Ffamily%3DArchitects%2BDaughter;fontSize=20;" vertex="1" parent="1">
          <mxGeometry x="640" y="130" width="120" height="550" as="geometry" />
        </mxCell>
        <mxCell id="cZ2S4tiX9ya77SvHFUL8-25" value="" style="shape=flexArrow;endArrow=classic;html=1;rounded=0;sketch=1;hachureGap=4;jiggle=2;curveFitting=1;fontFamily=Architects Daughter;fontSource=https%3A%2F%2Ffonts.googleapis.com%2Fcss%3Ffamily%3DArchitects%2BDaughter;fontSize=16;exitX=1.017;exitY=0.204;exitDx=0;exitDy=0;exitPerimeter=0;" edge="1" parent="1" source="cZ2S4tiX9ya77SvHFUL8-20">
          <mxGeometry width="50" height="50" relative="1" as="geometry">
            <mxPoint x="780" y="430" as="sourcePoint" />
            <mxPoint x="820" y="240" as="targetPoint" />
          </mxGeometry>
        </mxCell>
        <mxCell id="cZ2S4tiX9ya77SvHFUL8-31" style="edgeStyle=orthogonalEdgeStyle;rounded=0;sketch=1;hachureGap=4;jiggle=2;curveFitting=1;orthogonalLoop=1;jettySize=auto;html=1;fontFamily=Architects Daughter;fontSource=https%3A%2F%2Ffonts.googleapis.com%2Fcss%3Ffamily%3DArchitects%2BDaughter;fontSize=16;" edge="1" parent="1" source="cZ2S4tiX9ya77SvHFUL8-30">
          <mxGeometry relative="1" as="geometry">
            <mxPoint x="330" y="320" as="targetPoint" />
            <Array as="points">
              <mxPoint x="130" y="400" />
              <mxPoint x="331" y="400" />
            </Array>
          </mxGeometry>
        </mxCell>
        <mxCell id="cZ2S4tiX9ya77SvHFUL8-30" value="save preset" style="ellipse;whiteSpace=wrap;html=1;aspect=fixed;sketch=1;hachureGap=4;jiggle=2;curveFitting=1;fontFamily=Architects Daughter;fontSource=https%3A%2F%2Ffonts.googleapis.com%2Fcss%3Ffamily%3DArchitects%2BDaughter;fontSize=20;" vertex="1" parent="1">
          <mxGeometry x="90" y="520" width="80" height="80" as="geometry" />
        </mxCell>
        <mxCell id="cZ2S4tiX9ya77SvHFUL8-33" value="" style="group" vertex="1" connectable="0" parent="1">
          <mxGeometry x="827" y="150" width="520" height="160" as="geometry" />
        </mxCell>
        <mxCell id="cZ2S4tiX9ya77SvHFUL8-24" value="" style="rounded=1;whiteSpace=wrap;html=1;sketch=1;hachureGap=4;jiggle=2;curveFitting=1;fontFamily=Architects Daughter;fontSource=https%3A%2F%2Ffonts.googleapis.com%2Fcss%3Ffamily%3DArchitects%2BDaughter;fontSize=20;movable=1;resizable=1;rotatable=1;deletable=1;editable=1;locked=0;connectable=1;container=0;" vertex="1" parent="cZ2S4tiX9ya77SvHFUL8-33">
          <mxGeometry width="520" height="160" as="geometry" />
        </mxCell>
        <mxCell id="cZ2S4tiX9ya77SvHFUL8-26" value="eslint" style="ellipse;whiteSpace=wrap;html=1;sketch=1;hachureGap=4;jiggle=2;curveFitting=1;fontFamily=Architects Daughter;fontSource=https%3A%2F%2Ffonts.googleapis.com%2Fcss%3Ffamily%3DArchitects%2BDaughter;fontSize=20;fillColor=#dae8fc;strokeColor=#6c8ebf;movable=0;resizable=0;rotatable=0;deletable=0;editable=0;locked=1;connectable=0;" vertex="1" parent="cZ2S4tiX9ya77SvHFUL8-33">
          <mxGeometry x="20" y="20" width="120" height="80" as="geometry" />
        </mxCell>
        <mxCell id="cZ2S4tiX9ya77SvHFUL8-27" value="commitlint" style="ellipse;whiteSpace=wrap;html=1;sketch=1;hachureGap=4;jiggle=2;curveFitting=1;fontFamily=Architects Daughter;fontSource=https%3A%2F%2Ffonts.googleapis.com%2Fcss%3Ffamily%3DArchitects%2BDaughter;fontSize=20;fillColor=#dae8fc;strokeColor=#6c8ebf;movable=0;resizable=0;rotatable=0;deletable=0;editable=0;locked=1;connectable=0;" vertex="1" parent="cZ2S4tiX9ya77SvHFUL8-33">
          <mxGeometry x="180" y="20" width="120" height="80" as="geometry" />
        </mxCell>
        <mxCell id="cZ2S4tiX9ya77SvHFUL8-28" value="ohther" style="ellipse;whiteSpace=wrap;html=1;sketch=1;hachureGap=4;jiggle=2;curveFitting=1;fontFamily=Architects Daughter;fontSource=https%3A%2F%2Ffonts.googleapis.com%2Fcss%3Ffamily%3DArchitects%2BDaughter;fontSize=20;fillColor=#dae8fc;strokeColor=#6c8ebf;movable=0;resizable=0;rotatable=0;deletable=0;editable=0;locked=1;connectable=0;" vertex="1" parent="cZ2S4tiX9ya77SvHFUL8-33">
          <mxGeometry x="340" y="20" width="120" height="80" as="geometry" />
        </mxCell>
        <mxCell id="cZ2S4tiX9ya77SvHFUL8-29" value="处理单个配置或者插件" style="text;html=1;strokeColor=none;fillColor=none;align=center;verticalAlign=middle;whiteSpace=wrap;rounded=0;fontSize=20;fontFamily=Architects Daughter;movable=0;resizable=0;rotatable=0;deletable=0;editable=0;locked=1;connectable=0;" vertex="1" parent="cZ2S4tiX9ya77SvHFUL8-33">
          <mxGeometry x="130" y="120" width="240" height="30" as="geometry" />
        </mxCell>
        <mxCell id="cZ2S4tiX9ya77SvHFUL8-34" value="生成目标文件和目录" style="rounded=1;whiteSpace=wrap;html=1;sketch=1;hachureGap=4;jiggle=2;curveFitting=1;fontFamily=Architects Daughter;fontSource=https%3A%2F%2Ffonts.googleapis.com%2Fcss%3Ffamily%3DArchitects%2BDaughter;fontSize=20;" vertex="1" parent="1">
          <mxGeometry x="827" y="400" width="503" height="60" as="geometry" />
        </mxCell>
        <mxCell id="cZ2S4tiX9ya77SvHFUL8-35" value="" style="shape=flexArrow;endArrow=classic;html=1;rounded=0;sketch=1;hachureGap=4;jiggle=2;curveFitting=1;fontFamily=Architects Daughter;fontSource=https%3A%2F%2Ffonts.googleapis.com%2Fcss%3Ffamily%3DArchitects%2BDaughter;fontSize=16;exitX=0.479;exitY=1.006;exitDx=0;exitDy=0;exitPerimeter=0;entryX=0.5;entryY=0;entryDx=0;entryDy=0;" edge="1" parent="1" source="cZ2S4tiX9ya77SvHFUL8-24" target="cZ2S4tiX9ya77SvHFUL8-34">
          <mxGeometry width="50" height="50" relative="1" as="geometry">
            <mxPoint x="1040" y="450" as="sourcePoint" />
            <mxPoint x="1090" y="400" as="targetPoint" />
          </mxGeometry>
        </mxCell>
        <mxCell id="cZ2S4tiX9ya77SvHFUL8-37" value="copy to target and run shell" style="rounded=1;whiteSpace=wrap;html=1;sketch=1;hachureGap=4;jiggle=2;curveFitting=1;fontFamily=Architects Daughter;fontSource=https%3A%2F%2Ffonts.googleapis.com%2Fcss%3Ffamily%3DArchitects%2BDaughter;fontSize=20;" vertex="1" parent="1">
          <mxGeometry x="827" y="570" width="503" height="60" as="geometry" />
        </mxCell>
        <mxCell id="cZ2S4tiX9ya77SvHFUL8-38" value="" style="shape=flexArrow;endArrow=classic;html=1;rounded=0;sketch=1;hachureGap=4;jiggle=2;curveFitting=1;fontFamily=Architects Daughter;fontSource=https%3A%2F%2Ffonts.googleapis.com%2Fcss%3Ffamily%3DArchitects%2BDaughter;fontSize=16;exitX=0.479;exitY=1.006;exitDx=0;exitDy=0;exitPerimeter=0;entryX=0.485;entryY=-0.017;entryDx=0;entryDy=0;entryPerimeter=0;" edge="1" parent="1" target="cZ2S4tiX9ya77SvHFUL8-37">
          <mxGeometry width="50" height="50" relative="1" as="geometry">
            <mxPoint x="1070" y="460" as="sourcePoint" />
            <mxPoint x="1073" y="549" as="targetPoint" />
          </mxGeometry>
        </mxCell>
      </root>
    </mxGraphModel>
  </diagram>
</mxfile>
